<svg t="1722259501694" class="icon" viewBox="0 0 1024 1024" version="1.1" xmlns="http://www.w3.org/2000/svg" p-id="23784" width="200" height="200"><path d="M1.6 505.6l24 184c3.2 19.2 19.2 33.6 38.4 33.6h107.2V460.8H40c-22.4 0-41.6 20.8-38.4 44.8zM982.4 460.8h-131.2v262.4h107.2c19.2 0 36.8-14.4 38.4-33.6l24-184c4.8-24-14.4-44.8-38.4-44.8z" fill="#E4C6BE" p-id="23785"></path><path d="M665.6 1003.2H364.8c-161.6 0-294.4-132.8-294.4-294.4L64 294.4c0-60.8 49.6-110.4 110.4-110.4h670.4c60.8 0 110.4 49.6 110.4 110.4l4.8 414.4c0 161.6-131.2 294.4-294.4 294.4z" fill="#FAD8CE" p-id="23786"></path><path d="M65.6 294.4l1.6 168c3.2 0 36.8-4.8 36.8-43.2 0-40-11.2-174.4 24-174.4 27.2 0-8-22.4-27.2-33.6-20.8 20.8-35.2 49.6-35.2 83.2zM955.2 294.4l1.6 168c-8 0-41.6-4.8-41.6-43.2 0-40 9.6-214.4-25.6-216-28.8-1.6-19.2-40 28.8 8 22.4 20.8 35.2 46.4 36.8 83.2zM960 667.2s-94.4 182.4-228.8 104c-113.6-67.2-195.2-72-216-70.4-22.4 0-102.4 4.8-216 70.4-134.4 78.4-228.8-104-228.8-104l1.6 62.4c0 137.6 96 252.8 222.4 284.8l48 8c8 0 16 1.6 24 1.6H668.8c8 0 16 0 24-1.6l48-8c128-32 222.4-148.8 222.4-284.8l-3.2-62.4z" fill="#795548" p-id="23787"></path><path d="M400 441.6h-64c-20.8 3.2-35.2 19.2-35.2 40v75.2c0 22.4 17.6 40 38.4 40h1.6c22.4 0 40-17.6 40-40v-75.2c0-4.8-1.6-9.6-3.2-14.4H400c4.8 0 9.6-4.8 9.6-9.6v-6.4c1.6-4.8-3.2-9.6-9.6-9.6zM700.8 443.2h-64c-4.8 0-9.6 4.8-9.6 9.6v6.4c0 4.8 4.8 9.6 9.6 9.6h22.4c-1.6 4.8-3.2 9.6-3.2 14.4v75.2c0 22.4 17.6 40 40 40h1.6c22.4 0 38.4-19.2 38.4-40v-75.2c0-20.8-16-38.4-35.2-40z" fill="#202020" p-id="23788"></path><path d="M566.4 656h-108.8c-12.8 0-22.4-9.6-22.4-22.4v-30.4c0-12.8 9.6-22.4 22.4-22.4h108.8c12.8 0 22.4 9.6 22.4 22.4v30.4c1.6 12.8-9.6 22.4-22.4 22.4z" fill="#E4C6BE" p-id="23789"></path><path d="M926.4 222.4S900.8 20.8 694.4 20.8C505.6 20.8 179.2 129.6 67.2 16c-9.6-9.6-27.2-3.2-27.2 11.2C32 176 62.4 313.6 270.4 265.6c230.4-54.4 508.8-128 656-43.2zM102.4 323.2H65.6c-6.4 0-11.2-4.8-11.2-11.2v-4.8c0-6.4 4.8-11.2 11.2-11.2h35.2c6.4 0 11.2 4.8 11.2 11.2v4.8c1.6 4.8-3.2 11.2-9.6 11.2zM102.4 380.8H65.6c-6.4 0-11.2-4.8-11.2-11.2v-4.8c0-6.4 4.8-11.2 11.2-11.2h35.2c6.4 0 11.2 4.8 11.2 11.2v4.8c1.6 6.4-3.2 11.2-9.6 11.2zM102.4 438.4H65.6c-6.4 0-11.2-4.8-11.2-11.2v-4.8c0-6.4 4.8-11.2 11.2-11.2h35.2c6.4 0 11.2 4.8 11.2 11.2v4.8c1.6 6.4-3.2 11.2-9.6 11.2zM953.6 323.2h-35.2c-6.4 0-11.2-4.8-11.2-11.2v-4.8c0-6.4 4.8-11.2 11.2-11.2h35.2c6.4 0 11.2 4.8 11.2 11.2v4.8c0 4.8-4.8 11.2-11.2 11.2zM953.6 380.8h-35.2c-6.4 0-11.2-4.8-11.2-11.2v-4.8c0-6.4 4.8-11.2 11.2-11.2h35.2c6.4 0 11.2 4.8 11.2 11.2v4.8c0 6.4-4.8 11.2-11.2 11.2zM953.6 438.4h-35.2c-6.4 0-11.2-4.8-11.2-11.2v-4.8c0-6.4 4.8-11.2 11.2-11.2h35.2c6.4 0 11.2 4.8 11.2 11.2v4.8c0 6.4-4.8 11.2-11.2 11.2z" fill="#5D4037" p-id="23790"></path><path d="M432 340.8l-153.6 9.6c-8 0-14.4 8-14.4 16l1.6 12.8c0 8 8 14.4 16 14.4l153.6-9.6c8 0 14.4-8 14.4-16l-1.6-12.8c0-8-8-14.4-16-14.4zM764.8 350.4l-153.6-9.6c-8 0-16 6.4-16 14.4l-1.6 12.8c0 8 6.4 16 14.4 16l153.6 9.6c8 0 16-6.4 16-14.4l1.6-12.8c0-6.4-6.4-14.4-14.4-16z" fill="#5D4037" p-id="23791"></path><path d="M377.6 772.8c-12.8 0-22.4 12.8-17.6 25.6 19.2 43.2 84.8 75.2 163.2 75.2s144-32 163.2-75.2c4.8-11.2-4.8-25.6-17.6-25.6H377.6z" fill="#202020" p-id="23792"></path><path d="M404.8 785.6v8c0 4.8 3.2 8 8 8h220.8c4.8 0 8-3.2 8-8v-4.8-3.2H404.8z" fill="#FFFFFF" p-id="23793"></path></svg>