<svg
        viewBox="0 0 1024 1024"
        version="1.1"
        xmlns="http://www.w3.org/2000/svg"
        p-id="12135"
        width="200"
        height="200"
        fill=""
>
    <path d="M853.34016 170.65984V1024H0V170.65984h853.34016zM768 896H85.34016v42.65984H768V896z m0-85.34016H85.34016v42.68032H768v-42.68032zM1024 0v805.53984h-85.504V87.47008H170.65984V0H1024zM469.34016 725.34016H85.34016V768h384v-42.65984z m-208.36352-468.992l-7.43424 0.6144-18.41152 53.71904c-8.84736 2.53952-17.408 5.98016-25.6 10.26048l-6.06208 3.3792-49.62304-24.49408c-7.68 6.5536-14.86848 13.70112-21.46304 21.42208l-4.83328 5.87776L151.1424 378.6752c-4.5056 8.192-8.23296 16.87552-11.12064 25.96864l-2.00704 6.90176-51.75296 19.10784a203.0592 203.0592 0 0 0-0.6144 30.9248l0.6144 7.72096 51.75296 19.10784c2.43712 9.17504 5.7344 18.08384 9.87136 26.58304l3.25632 6.28736-23.59296 51.5072c6.28736 7.9872 13.18912 15.44192 20.62336 22.30272l5.67296 5.0176 49.62304-24.49408c7.9872 4.7104 16.384 8.58112 25.088 11.55072l6.57408 2.06848 18.41152 53.73952c9.91232 1.024 19.8656 1.2288 29.7984 0.6144l7.43424-0.6144 18.39104-53.73952c8.84736-2.51904 17.42848-5.95968 25.6-10.24l6.06208-3.3792 49.62304 24.49408c7.70048-6.5536 14.88896-13.7216 21.48352-21.42208l4.83328-5.89824-23.59296-51.5072c4.52608-8.27392 8.27392-16.9984 11.14112-26.05056l1.98656-6.81984 51.75296-19.10784a203.0592 203.0592 0 0 0 0.59392-30.9248l-0.59392-7.72096-51.75296-19.10784a147.23072 147.23072 0 0 0-9.91232-26.624l-3.21536-6.2464 23.59296-51.52768a192.18432 192.18432 0 0 0-20.64384-22.28224l-5.67296-5.0176-49.62304 24.49408a135.53664 135.53664 0 0 0-25.02656-11.55072l-6.63552-2.08896-18.39104-53.71904c-9.91232-1.024-19.8656-1.2288-29.7984-0.6144z m-30.57664 117.76a85.34016 85.34016 0 1 1 85.34016 147.78368 85.34016 85.34016 0 0 1-85.34016-147.78368z"
          fill="#1677ff"
          p-id="12136"></path>
</svg>